<svg width="400" height="400" viewBox="0 0 400 400" fill="none" xmlns="http://www.w3.org/2000/svg">
<rect width="400" height="400" rx="75" fill="#C4170C"/>
<path d="M98.259 282.357C91.397 282.357 85.0412 281.232 79.1916 278.982C73.3421 276.732 68.2799 273.582 64.0052 269.533C59.8431 265.595 56.8058 260.927 54.8934 255.528L75.4794 247.766C76.8293 252.04 79.4729 255.471 83.4101 258.059C87.4598 260.758 92.4095 262.108 98.259 262.108C102.759 262.108 106.696 261.265 110.071 259.577C113.558 257.89 116.258 255.415 118.17 252.153C120.083 249.003 121.039 245.178 121.039 240.679V219.755L125.257 224.817C122.107 230.329 117.889 234.492 112.602 237.304C107.314 240.116 101.296 241.522 94.5468 241.522C85.9974 241.522 78.348 239.554 71.5984 235.616C64.8489 231.679 59.5618 226.279 55.7371 219.418C51.9124 212.556 50 204.85 50 196.301C50 187.639 51.9124 179.933 55.7371 173.183C59.5618 166.434 64.7927 161.147 71.4297 157.322C78.0667 153.385 85.6037 151.416 94.0406 151.416C100.903 151.416 106.921 152.879 112.096 155.803C117.383 158.616 121.77 162.722 125.257 168.121L122.22 173.69V153.441H143.143V240.679C143.143 248.666 141.175 255.809 137.237 262.108C133.413 268.408 128.126 273.357 121.376 276.957C114.739 280.557 107.033 282.357 98.259 282.357ZM97.2466 221.105C101.971 221.105 106.077 220.093 109.564 218.068C113.164 215.931 115.976 213.006 118.001 209.293C120.026 205.581 121.039 201.306 121.039 196.469C121.039 191.745 119.97 187.526 117.833 183.814C115.808 179.989 112.996 177.008 109.396 174.871C105.909 172.734 101.859 171.665 97.2466 171.665C92.6344 171.665 88.4722 172.734 84.76 174.871C81.0478 177.008 78.1229 179.989 75.9856 183.814C73.9608 187.526 72.9483 191.745 72.9483 196.469C72.9483 201.194 73.9608 205.412 75.9856 209.125C78.1229 212.837 80.9915 215.762 84.5913 217.899C88.3035 220.036 92.5219 221.105 97.2466 221.105ZM169.356 245.235L212.046 190.226L215.927 194.276C214.24 195.513 212.609 196.526 211.034 197.313C209.459 198.1 207.771 198.663 205.972 199C204.172 199.338 202.26 199.507 200.235 199.507C192.585 199.507 185.78 197.763 179.817 194.276C173.855 190.789 169.13 186.064 165.643 180.102C162.269 174.027 160.581 167.165 160.581 159.516C160.581 151.416 162.437 144.217 166.15 137.917C169.974 131.618 175.149 126.668 181.674 123.068C188.311 119.356 195.847 117.5 204.284 117.5C212.834 117.5 220.371 119.3 226.895 122.9C233.42 126.499 238.538 131.449 242.25 137.749C246.075 143.936 247.987 151.079 247.987 159.178C247.987 163.228 247.538 167.278 246.638 171.327C245.737 175.377 244.106 179.708 241.744 184.32C239.494 188.82 236.232 193.938 231.957 199.675L196.86 245.235H169.356ZM204.284 180.27C208.222 180.27 211.709 179.427 214.746 177.739C217.896 175.94 220.371 173.465 222.171 170.315C223.97 167.053 224.87 163.397 224.87 159.347C224.87 155.072 223.914 151.36 222.002 148.21C220.202 145.061 217.783 142.586 214.746 140.786C211.709 138.986 208.222 138.086 204.284 138.086C200.46 138.086 196.972 138.986 193.823 140.786C190.673 142.586 188.142 145.061 186.229 148.21C184.43 151.36 183.53 155.072 183.53 159.347C183.53 163.397 184.43 167.053 186.229 170.315C188.142 173.465 190.673 175.94 193.823 177.739C196.972 179.427 200.46 180.27 204.284 180.27ZM305.116 247.259C298.479 247.259 292.123 246.022 286.048 243.547C280.086 241.073 274.912 237.585 270.524 233.085C266.25 228.473 263.325 223.018 261.75 216.718L281.661 209.631C283.574 215.368 286.667 219.643 290.942 222.455C295.217 225.155 299.941 226.505 305.116 226.505C309.391 226.505 313.159 225.605 316.421 223.805C319.796 221.892 322.383 219.305 324.183 216.043C325.983 212.668 326.883 208.787 326.883 204.4C326.883 200.013 325.927 196.188 324.014 192.926C322.215 189.663 319.684 187.132 316.421 185.333C313.159 183.42 309.391 182.464 305.116 182.464C300.729 182.464 296.735 183.42 293.135 185.333C289.648 187.245 287.117 190.001 285.542 193.601L266.812 189.382L276.768 119.525H345.275V138.93H285.88L294.485 128.974L287.398 181.62L280.818 176.221C283.967 171.608 287.792 168.234 292.292 166.096C296.904 163.959 302.472 162.89 308.997 162.89C317.321 162.89 324.521 164.69 330.595 168.29C336.782 171.89 341.563 176.783 344.938 182.97C348.313 189.157 350 196.301 350 204.4C350 212.499 348.032 219.812 344.094 226.336C340.157 232.86 334.814 237.979 328.064 241.691C321.315 245.403 313.665 247.259 305.116 247.259Z" fill="white"/>
</svg>
