<svg width="300" height="165" viewBox="0 0 300 165" fill="none" xmlns="http://www.w3.org/2000/svg">
<path d="M48.259 164.857C41.397 164.857 35.0412 163.732 29.1916 161.482C23.3421 159.232 18.2799 156.082 14.0052 152.033C9.84306 148.095 6.80578 143.427 4.8934 138.028L25.4794 130.266C26.8293 134.54 29.4729 137.971 33.4101 140.559C37.4598 143.258 42.4095 144.608 48.259 144.608C52.7585 144.608 56.6959 143.765 60.0707 142.077C63.5577 140.39 66.2575 137.915 68.1701 134.653C70.0826 131.503 71.0386 127.678 71.0386 123.179V102.255L75.2571 107.317C72.1075 112.829 67.889 116.992 62.6017 119.804C57.3144 122.616 51.2963 124.022 44.5468 124.022C35.9974 124.022 28.348 122.054 21.5984 118.116C14.8489 114.179 9.56179 108.779 5.73709 101.918C1.91236 95.0558 0 87.3498 0 78.8006C0 70.1385 1.91236 62.433 5.73709 55.6835C9.56179 48.934 14.7927 43.6468 21.4297 39.8221C28.0667 35.8849 35.6037 33.9163 44.0406 33.9163C50.9026 33.9163 56.9211 35.3787 62.0955 38.3035C67.3828 41.1158 71.77 45.2217 75.2571 50.6213L72.2198 56.1897V35.9412H93.1433V123.179C93.1433 131.166 91.1748 138.309 87.2374 144.608C83.4129 150.908 78.1256 155.857 71.3761 159.457C64.7389 163.057 57.0334 164.857 48.259 164.857ZM47.2466 103.605C51.9712 103.605 56.0774 102.593 59.5644 100.568C63.1644 98.4306 65.9765 95.5056 68.0013 91.7934C70.0262 88.0811 71.0386 83.8063 71.0386 78.9693C71.0386 74.2446 69.9698 70.0262 67.8326 66.314C65.8077 62.4894 62.9956 59.508 59.3957 57.3709C55.9086 55.2337 51.8588 54.1648 47.2466 54.1648C42.6344 54.1648 38.4722 55.2337 34.76 57.3709C31.0478 59.508 28.123 62.4894 25.9856 66.314C23.9608 70.0262 22.9483 74.2446 22.9483 78.9693C22.9483 83.694 23.9608 87.9124 25.9856 91.6246C28.123 95.3369 30.9915 98.2618 34.5913 100.399C38.3035 102.536 42.5219 103.605 47.2466 103.605ZM119.356 127.735L162.046 72.726L165.927 76.7757C164.24 78.0133 162.609 79.0257 161.034 79.813C159.459 80.6003 157.771 81.1629 155.972 81.5004C154.172 81.8378 152.26 82.0066 150.235 82.0066C142.585 82.0066 135.78 80.2628 129.817 76.7757C123.855 73.2886 119.13 68.564 115.643 62.6017C112.269 56.5272 110.581 49.6652 110.581 42.0157C110.581 33.9163 112.437 26.7168 116.15 20.4173C119.974 14.1177 125.149 9.16811 131.674 5.56835C138.311 1.85612 145.847 0 154.284 0C162.834 0 170.371 1.79987 176.895 5.39961C183.42 8.99937 188.538 13.949 192.25 20.2485C196.075 26.4356 197.987 33.5788 197.987 41.6782C197.987 45.728 197.538 49.7777 196.638 53.8274C195.737 57.8771 194.106 62.2078 191.744 66.8202C189.494 71.3197 186.232 76.4382 181.957 82.1753L146.86 127.735H119.356ZM154.284 62.7705C158.222 62.7705 161.709 61.9268 164.746 60.2394C167.896 58.4397 170.371 55.9645 172.171 52.8149C173.97 49.5527 174.87 45.8967 174.87 41.847C174.87 37.5723 173.914 33.86 172.002 30.7103C170.202 27.5605 167.783 25.0857 164.746 23.2858C161.709 21.486 158.222 20.586 154.284 20.586C150.46 20.586 146.972 21.486 143.823 23.2858C140.673 25.0857 138.142 27.5605 136.229 30.7103C134.43 33.86 133.53 37.5723 133.53 41.847C133.53 45.8967 134.43 49.5527 136.229 52.8149C138.142 55.9645 140.673 58.4397 143.823 60.2394C146.972 61.9268 150.46 62.7705 154.284 62.7705ZM255.116 129.759C248.479 129.759 242.123 128.522 236.048 126.047C230.086 123.573 224.912 120.085 220.524 115.585C216.25 110.973 213.325 105.518 211.75 99.2178L231.661 92.1308C233.574 97.8679 236.667 102.143 240.942 104.955C245.217 107.655 249.941 109.005 255.116 109.005C259.391 109.005 263.159 108.105 266.421 106.305C269.796 104.392 272.383 101.805 274.183 98.5429C275.983 95.1681 276.883 91.2872 276.883 86.9C276.883 82.5128 275.927 78.6882 274.014 75.4258C272.215 72.1634 269.684 69.6323 266.421 67.8326C263.159 65.9201 259.391 64.9641 255.116 64.9641C250.729 64.9641 246.735 65.9201 243.135 67.8326C239.648 69.7451 237.117 72.5008 235.542 76.1008L216.812 71.8823L226.768 2.02485H295.275V21.4297H235.88L244.485 11.4742L237.398 64.1204L230.818 58.7208C233.967 54.1084 237.792 50.7338 242.292 48.5965C246.904 46.4592 252.472 45.3905 258.997 45.3905C267.321 45.3905 274.521 47.1903 280.595 50.7901C286.782 54.39 291.563 59.2834 294.938 65.4703C298.313 71.6572 300 78.8006 300 86.9C300 94.9994 298.032 102.312 294.094 108.836C290.157 115.36 284.814 120.479 278.064 124.191C271.315 127.903 263.665 129.759 255.116 129.759Z" fill="white"/>
</svg>
